<?xml version="1.0" encoding="UTF-8"?>
<svg id="Layer_1" xmlns="http://www.w3.org/2000/svg" version="1.1" viewBox="0 0 612 125.6">
  <!-- Generator: Adobe Illustrator 29.5.0, SVG Export Plug-In . SVG Version: 2.1.0 Build 137)  -->
  <defs>
    <style>
      .st0 {
        display: none;
      }

      .st0, .st1, .st2 {
        isolation: isolate;
      }

      .st1 {
        font-family: SpecialGothicExpandedOne-Regular, 'Special Gothic Expanded One';
        font-size: 12px;
      }

      .st1, .st3, .st4 {
        fill: none;
        stroke: #d1d3d4;
      }

      .st3 {
        stroke-linecap: round;
        stroke-miterlimit: 10;
        stroke-width: 3px;
      }
    </style>
  </defs>
  <polyline class="st3" points="597.5 18 597.5 106.6 21.5 106.6 21.5 18 597.5 18"/>
  <g class="st2">
    <g class="st2">
      <text class="st1" transform="translate(860.6 -128.7)"><tspan x="0" y="0">Buena Vista Park, WI</tspan></text>
    </g>
  </g>
  <g class="st2">
    <g class="st2">
      <text class="st1" transform="translate(79.4 185.3)"><tspan x="0" y="0">Buena Vista Park, WI</tspan></text>
    </g>
  </g>
  <g class="st0">
    <g class="st2">
      <g class="st2">
        <path class="st4" d="M52.4,45.4l7.5,25.6,8.8-25.6h10.1l8.8,25.6,7.5-25.6h10.2l-11.9,34.8h-11.9l-8-23.6-8,23.6h-11.7l-11.9-34.8h10.6"/>
        <path class="st4" d="M120.6,54.5c3.2,0,6.1.5,8.7,1.5,2.6,1,4.7,2.5,6.2,4.4,1.5,2,2.3,4.4,2.3,7.3s-.5,4.1-1.4,5.7c-.9,1.6-2.2,3-3.8,4.1-1.6,1.1-3.5,2-5.5,2.5-2.1.6-4.2.9-6.4.9s-4.4-.3-6.5-.9c-2.1-.6-3.9-1.4-5.5-2.5-1.6-1.1-2.9-2.5-3.8-4.1-.9-1.6-1.4-3.5-1.4-5.7s.8-5.3,2.3-7.3c1.5-2,3.6-3.4,6.2-4.4,2.6-1,5.5-1.5,8.7-1.5M120.6,60.9c-2.3,0-4.1.6-5.5,1.8s-2.1,2.7-2.1,4.7v.5c0,1.9.7,3.5,2.1,4.7s3.3,1.8,5.5,1.8,4.1-.6,5.5-1.8,2.1-2.8,2.1-4.7v-.5c0-2-.7-3.5-2.1-4.7s-3.2-1.8-5.5-1.8"/>
        <path class="st4" d="M151.2,55v23.8c0,3.5-1,6-2.9,7.7-1.9,1.6-4.6,2.4-8.1,2.4s-2.9,0-4.1-.1c-1.2,0-2.4-.2-3.6-.4v-5.8c.9,0,1.8.1,2.7.2.9,0,1.8.1,2.7.1s1.2,0,1.8-.2c.6-.2,1-.5,1.4-1s.6-1.3.6-2.4v-24.2h9.5M151.2,44.9v6.9h-9.4v-6.9h9.4"/>
        <path class="st4" d="M187.9,64.1l-8.8.9c-.5-1.2-1.3-2.2-2.5-3-1.2-.8-2.7-1.1-4.5-1.1s-4.1.6-5.4,1.8-2,2.8-2,4.7v.5c0,1.9.7,3.5,2,4.7s3.2,1.8,5.4,1.8,3.3-.4,4.5-1.1c1.2-.8,2-1.7,2.5-3l8.8.9c-.5,2.3-1.5,4.1-3.1,5.5s-3.4,2.5-5.6,3.1c-2.2.7-4.6,1-7,1s-4.3-.3-6.3-.9c-2-.6-3.9-1.4-5.5-2.5-1.6-1.1-2.9-2.5-3.8-4.1-.9-1.6-1.4-3.5-1.4-5.7s.8-5.3,2.3-7.3c1.5-2,3.6-3.4,6.2-4.4,2.6-1,5.5-1.5,8.6-1.5s4.8.3,7,1c2.2.7,4.1,1.7,5.6,3.1,1.6,1.4,2.6,3.3,3.1,5.5"/>
        <path class="st4" d="M189.8,61.3v-6.2h29.2v5.4l-16,13.6h16.7v6.2h-29.9v-5.4l16-13.6h-16"/>
        <path class="st4" d="M254.8,55l-12.4,24.8c-1.1,2.3-2.3,4.1-3.6,5.4-1.3,1.3-2.7,2.3-4.3,2.8-1.6.6-3.4.8-5.6.8s-1.5,0-2.6,0c-1,0-2.1-.2-3.2-.4v-6.3c1.1,0,2.3.2,3.6.2,1.3,0,2.5,0,3.6-.3,1.1-.3,1.9-.8,2.4-1.7l.3-.6-12.6-24.7h9.9l7.4,16.2,7.4-16.2h9.7"/>
        <path class="st4" d="M266.9,45.4v19l11.1-9.4h12.5l-12,9.8,11.1,15.4h-11.7l-6.7-9.7-4.3,3.5v6.2h-9.5v-34.8h9.5"/>
        <path class="st4" d="M303.1,45.4h20.5c4.7,0,8.3,1,10.9,3,2.6,2,3.8,5,3.8,9s-1.3,6.8-3.8,8.8c-2.6,2-6.2,3-10.9,3h-10.7v11h-9.8v-34.8M312.9,52.7v9.5h10.2c1.9,0,3.3-.4,4.2-1.1.9-.7,1.3-1.8,1.3-3.2v-.6c0-1.6-.4-2.7-1.3-3.5-.9-.8-2.3-1.1-4.2-1.1h-10.2"/>
        <path class="st4" d="M341.7,55h9.4v3.5c1.1-1.4,2.6-2.4,4.3-3.1,1.7-.7,3.5-1,5.4-1s.8,0,1.3,0,1,0,1.6.2v7.3c-.9,0-1.9-.2-3-.2-1.1,0-2.2,0-3.3,0-1.1,0-2.1.3-3.1.7s-1.7,1-2.3,1.8c-.6.8-.9,1.9-.9,3.3v12.6h-9.5v-25.2"/>
        <path class="st4" d="M374.4,63.6l-9.6-.7c.4-1.5,1.2-2.9,2.3-4.2,1.1-1.3,2.8-2.3,4.9-3.1,2.1-.8,4.8-1.2,8.1-1.2,4.7,0,8.4.8,10.9,2.5s3.8,4.1,3.8,7.3v8.4c0,1.2,0,2.2,0,3,0,.8,0,1.6,0,2.3,0,.7.1,1.5.2,2.3h-9.1l-.2-2.2c-1.1.9-2.6,1.6-4.3,2-1.7.4-3.5.6-5.5.6-3.4,0-6.2-.7-8.3-2s-3.2-3.2-3.2-5.7.8-3.7,2.4-5.1c1.6-1.4,4.2-2.3,7.8-2.6l10.5-1v-.2c0-2.3-1.7-3.4-5.2-3.4s-2.9.2-3.8.7c-.9.5-1.5,1.2-1.8,2.3M385.3,69.6l-8.1,1c-.9.1-1.6.4-2.2.7-.5.3-.8.9-.8,1.6s.3,1.2.9,1.6c.6.4,1.6.6,3,.6s2.3-.1,3.4-.3c1.1-.2,2-.6,2.7-1.2.7-.6,1.1-1.3,1.1-2.3v-1.7"/>
        <path class="st4" d="M409.2,55v25.2h-9.5v-25.2h9.5M409.2,51.8h-9.4v-6.9h9.4v6.9"/>
        <path class="st4" d="M414.3,55h9.4v3.5c1.1-1.4,2.6-2.4,4.3-3.1,1.7-.7,3.5-1,5.4-1s.8,0,1.3,0,1,0,1.6.2v7.3c-.9,0-1.9-.2-3-.2-1.1,0-2.2,0-3.3,0-1.1,0-2.1.3-3.1.7s-1.7,1-2.3,1.8c-.6.8-.9,1.9-.9,3.3v12.6h-9.5v-25.2"/>
        <path class="st4" d="M470.3,69.5h-23.9c.2,1.4.9,2.5,2.2,3.5,1.3.9,3.2,1.4,5.8,1.4s3.9-.3,4.9-.8,1.7-1.2,2.2-2.1l8.7.9c-.7,2.7-2.5,4.8-5.3,6.2-2.8,1.4-6.3,2.1-10.4,2.1s-6.4-.5-9-1.5c-2.6-1-4.7-2.5-6.2-4.5-1.5-2-2.3-4.4-2.3-7.2s.7-5.3,2.2-7.3c1.4-2,3.5-3.4,6.1-4.4,2.6-1,5.6-1.5,9-1.5s6.7.6,9.2,1.7c2.5,1.1,4.4,2.8,5.6,5.1s1.7,5,1.3,8.3M461.6,64.7c-.2-1.4-.9-2.4-2.1-3.2s-3-1.1-5.3-1.1-4.3.4-5.5,1.3-2,1.8-2.2,3h15.2"/>
        <path class="st4" d="M474.2,71.8h9.3v7.5l-4.8,7.9h-4.9l3.3-6.9h-3v-8.4"/>
        <path class="st4" d="M557.6,45.4l-11.9,34.8h-11.9l-8-23.6-8,23.6h-11.7l-11.9-34.8h10.6l7.5,25.6,8.8-25.6h10.1l8.8,25.6,7.5-25.6h10.2"/>
        <path class="st4" d="M570.3,45.4v34.8h-9.8v-34.8h9.8"/>
      </g>
    </g>
  </g>
  <g class="st0">
    <g class="st2">
      <g class="st2">
        <path class="st4" d="M58.1,51.2v5h-9.5v18.9h-6.7v-18.9h-9.5v-5h25.6"/>
        <path class="st4" d="M86.1,51.2v23.8h-6.7v-9.4h-12v9.4h-6.7v-23.8h6.7v9.4h12v-9.4h6.7"/>
        <path class="st4" d="M112.1,51.2v5h-15.4v4.4h13.9v4.8h-13.9v4.7h15.7v5h-22.4v-23.8h22.1"/>
        <path class="st4" d="M159.3,51.2v23.8h-6.7v-17.6h0l-8.6,17.6h-6.1l-8.6-17.6h0v17.6h-6.2v-23.8h10.1l8,16.5h0l8-16.5h10.2"/>
        <path class="st4" d="M169.9,51.2v23.8h-6.7v-23.8h6.7"/>
        <path class="st4" d="M173.8,51.2h12.8c3.2,0,5.8.5,7.8,1.5,2.1,1,3.6,2.4,4.6,4.2,1,1.8,1.5,3.9,1.5,6.2s-.5,4.3-1.5,6.1c-1,1.8-2.6,3.2-4.6,4.2-2.1,1-4.7,1.5-7.8,1.5h-12.8v-23.8M180.5,56.1v13.9h5.7c2.6,0,4.6-.6,5.8-1.7,1.3-1.2,1.9-2.7,1.9-4.8v-.9c0-2.1-.6-3.7-1.9-4.8s-3.2-1.7-5.8-1.7h-5.7"/>
        <path class="st4" d="M244,51.2l-8.1,23.8h-8.1l-5.5-16.2-5.5,16.2h-8l-8.2-23.8h7.3l5.1,17.5,6-17.5h6.9l6,17.5,5.1-17.5h6.9"/>
        <path class="st4" d="M268.1,51.2v5h-15.4v4.4h13.9v4.8h-13.9v4.7h15.7v5h-22.4v-23.8h22.1"/>
        <path class="st4" d="M296.4,57.1l-5.7,1.8c-.7-1.3-1.6-2.1-2.8-2.5-1.2-.4-2.8-.6-4.8-.6s-3,.2-4,.5c-1,.3-1.5.8-1.5,1.5s.3,1,.8,1.3c.5.3,1.4.6,2.7.7l7.1.9c2.9.4,5,1.1,6.4,2.2,1.3,1.1,2,2.7,2,4.5s-.5,3.2-1.6,4.4-2.6,2.1-4.5,2.6-4.2.9-6.8.9-4-.2-5.8-.6c-1.8-.4-3.3-1.1-4.7-2.1-1.3-1-2.3-2.3-3.1-3.9l6-1.8c.4.8,1,1.5,1.6,2,.6.5,1.4.9,2.4,1.1,1,.2,2.3.4,3.9.4s3.4-.2,4.4-.6c1-.4,1.5-1,1.5-1.6s-.2-1-.7-1.3c-.5-.4-1.4-.6-2.8-.8l-6.5-.8c-3-.4-5.2-1.1-6.7-2.2-1.5-1.1-2.2-2.6-2.2-4.6s.5-3.1,1.5-4.3c1-1.1,2.5-2,4.4-2.6,1.9-.6,4.1-.9,6.6-.9s3.6.2,5.3.6,3.2,1,4.5,1.9c1.3.9,2.3,2.2,3.1,3.9"/>
        <path class="st4" d="M322.7,51.2v5h-9.5v18.9h-6.7v-18.9h-9.5v-5h25.6"/>
        <path class="st4" d="M347.3,51.2v5h-15.4v4.4h13.9v4.8h-13.9v4.7h15.7v5h-22.4v-23.8h22.1"/>
        <path class="st4" d="M350.8,51.2h14.7c3.2,0,5.6.7,7.2,2,1.6,1.4,2.4,3.3,2.4,5.9s-.4,3.4-1.3,4.6c-.9,1.2-2.2,2.1-3.8,2.8l5.4,8.5h-7.6l-4.6-7.7h-5.5v7.7h-6.7v-23.8M364.9,56.1h-7.4v6.4h7.4c2.3,0,3.5-1,3.5-3.1v-.3c0-2-1.2-3-3.5-3Z"/>
        <path class="st4" d="M396.4,51.2h6.2v23.8h-5.1l-13.2-15.4h0v15.4h-6.2v-23.8M378.1,51.2h6.9l11.4,13.4h0v-13.4"/>
        <path class="st4" d="M441.5,58.4l-6,1.4c-.4-1.1-1-1.9-1.8-2.5-.7-.6-1.6-1-2.6-1.2s-2-.3-3.1-.3-2.9.3-4.1.8c-1.2.5-2.2,1.3-3,2.3-.7,1-1.1,2.3-1.1,3.8v.7c0,1.5.4,2.8,1.1,3.8.7,1,1.8,1.8,3.1,2.3,1.3.5,2.8.8,4.5.8s2.6-.2,3.7-.5c1.1-.3,1.9-.8,2.5-1.4.6-.6.9-1.3.9-2.2v-.2h-8.6v-4.6h14.8v13.6h-5.3l-.3-2.3c-1.1,1-2.5,1.7-4.1,2.1-1.6.4-3.2.7-4.9.7-2.8,0-5.3-.5-7.4-1.5-2.2-1-3.8-2.4-5.1-4.3-1.2-1.8-1.8-4-1.8-6.5s.6-4.7,1.9-6.5,3-3.3,5.3-4.3c2.2-1,4.8-1.5,7.7-1.5s4.7.3,6.6,1,3.4,1.6,4.6,2.7c1.1,1.1,1.9,2.3,2.3,3.7M441.4,58.2c0,0,0,.2,0,.3"/>
        <path class="st4" d="M462.2,51.2l11.6,23.8h-7.1l-2.6-5.6h-11.2l-2.6,5.6h-6.7l11.6-23.8h7.1M454.9,64.8h7l-3.5-7.5-3.5,7.5Z"/>
        <path class="st4" d="M475.7,51.2h14.7c3.2,0,5.6.7,7.2,2s2.4,3.3,2.4,5.9-.4,3.4-1.3,4.6c-.9,1.2-2.2,2.1-3.8,2.8l5.4,8.5h-7.7l-4.6-7.7h-5.5v7.7h-6.7v-23.8M489.7,56.1h-7.4v6.4h7.4c2.3,0,3.5-1,3.5-3.1v-.3c0-2-1.2-3-3.5-3Z"/>
        <path class="st4" d="M502.9,51.2h12.9c3.2,0,5.8.5,7.8,1.5s3.6,2.4,4.6,4.2c1,1.8,1.5,3.9,1.5,6.2s-.5,4.3-1.5,6.1c-1,1.8-2.6,3.2-4.6,4.2s-4.7,1.5-7.8,1.5h-12.9v-23.8M509.6,70h5.7c2.6,0,4.6-.6,5.8-1.7,1.3-1.2,1.9-2.7,1.9-4.8v-.9c0-2.1-.6-3.7-1.9-4.8-1.3-1.1-3.2-1.7-5.8-1.7h-5.7v13.9Z"/>
        <path class="st4" d="M555,51.2v5h-15.4v4.4h13.9v4.8h-13.9v4.7h15.7v5h-22.4v-23.8h22.1"/>
        <path class="st4" d="M558.4,51.2h6.9l11.4,13.4h0v-13.4h6.2v23.8h-5.1l-13.2-15.4h0v15.4h-6.2v-23.8"/>
      </g>
    </g>
  </g>
  <g class="st0">
    <g class="st2">
      <path class="st4" d="M91.5,41.8v36.3h-10.2v-26.9h0l-13.1,26.9h-9.4l-13.1-26.9h0v26.9h-9.5v-36.3h15.5l12.2,25.2h0l12.2-25.2h15.6"/>
      <path class="st4" d="M107.1,51.8v26.3h-9.9v-26.3h9.9M107.1,41.3v7.2h-9.8v-7.2h9.8"/>
      <path class="st4" d="M122.3,41.8v36.3h-9.9v-36.3h9.9"/>
      <path class="st4" d="M137.6,41.8v36.3h-9.9v-36.3h9.9"/>
      <path class="st4" d="M165.6,60.2c-.5-.8-1.3-1.4-2.4-1.9-1.1-.5-2.9-.7-5.5-.7s-3.8.2-4.9.5-1.6.8-1.6,1.3.2.6.6.9c.4.3,1.2.5,2.6.7l9.6,1.2c2.1.2,3.9.6,5.4,1.1s2.7,1.3,3.5,2.3,1.2,2.4,1.2,4.1-.7,3.9-2.1,5.2c-1.4,1.3-3.4,2.3-5.9,3-2.5.6-5.3.9-8.5.9s-7.4-.5-10.3-1.6c-2.9-1.1-4.9-2.7-6-4.9l8.2-3c.3.4.7.9,1.2,1.4s1.3.9,2.4,1.3c1.1.3,2.7.5,4.8.5s4,0,5.3-.4,2-.8,2-1.5-.2-.8-.6-1c-.4-.3-1-.4-1.9-.5l-10.4-1.3c-1.9-.2-3.6-.6-5.1-1.2s-2.7-1.3-3.6-2.4c-.9-1-1.3-2.4-1.3-4s.7-3.8,2-5.1,3.1-2.3,5.5-2.9c2.3-.6,5-.9,8-.9s7.3.5,10,1.6,4.7,2.8,5.9,5.1l-8,2.3"/>
      <path class="st4" d="M191.6,43.7v8.1h11.1v6.5h-11.1v10c0,1.1.3,1.8.8,2.4s1.2.8,2,1,1.7.2,2.6.2,2,0,3-.2,2.1-.3,3.3-.5v6.5c-1.6.3-3.1.6-4.5.8-1.4.2-2.9.3-4.4.3-2.5,0-4.6-.3-6.5-.8-1.9-.6-3.4-1.5-4.5-2.9-1.1-1.3-1.6-3.2-1.6-5.5v-11.2h-6.3v-6.5h6.5l1.2-8.1h8.5"/>
      <path class="st4" d="M222.4,51.2c3.3,0,6.4.5,9.1,1.6,2.7,1,4.9,2.6,6.4,4.6,1.6,2,2.4,4.6,2.4,7.6s-.5,4.2-1.5,5.9c-1,1.7-2.3,3.1-4,4.3-1.7,1.2-3.6,2-5.8,2.6-2.1.6-4.4.9-6.7.9s-4.6-.3-6.8-.9c-2.1-.6-4.1-1.5-5.8-2.6-1.7-1.2-3-2.6-4-4.3-1-1.7-1.5-3.7-1.5-5.9s.8-5.5,2.4-7.6c1.6-2,3.7-3.6,6.5-4.6,2.7-1,5.8-1.6,9.1-1.6M222.4,58c-2.4,0-4.3.6-5.8,1.8s-2.2,2.9-2.2,4.9v.5c0,2,.7,3.6,2.2,4.9s3.4,1.9,5.8,1.9,4.3-.6,5.8-1.9,2.2-2.9,2.2-4.9v-.5c0-2-.7-3.7-2.2-4.9s-3.4-1.8-5.8-1.8"/>
      <path class="st4" d="M244.4,51.8h9.8v2.5c2.2-2.1,5.4-3.1,9.6-3.1s2.8,0,4.3.5c1.5.3,2.8.8,4,1.6s2.2,1.8,3,3.2c.8,1.3,1.2,3,1.2,5.1v16.6h-9.9v-15.6c0-1.6-.5-2.7-1.6-3.4s-2.5-1-4.4-1-3.3.3-4.4,1-1.7,1.8-1.7,3.4v15.6h-9.9v-26.3"/>
      <path class="st4" d="M315,66.9h-24.9c.2,1.4.9,2.6,2.3,3.6,1.3,1,3.4,1.5,6.1,1.5s4.1-.3,5.1-.8,1.8-1.3,2.3-2.1l9.1,1c-.8,2.8-2.6,5-5.6,6.5s-6.6,2.2-10.9,2.2-6.7-.5-9.4-1.6c-2.8-1.1-4.9-2.6-6.5-4.7-1.6-2-2.4-4.6-2.4-7.5s.7-5.5,2.3-7.6c1.5-2,3.6-3.6,6.3-4.6,2.7-1,5.9-1.6,9.4-1.6s7,.6,9.6,1.8,4.6,2.9,5.9,5.3c1.3,2.3,1.7,5.2,1.4,8.7M290.1,61.8h15.8c-.2-1.4-.9-2.5-2.2-3.3s-3.1-1.2-5.5-1.2-4.5.4-5.8,1.3c-1.3.9-2.1,1.9-2.3,3.1"/>
      <path class="st4" d="M331,41.8h21.4c4.9,0,8.7,1,11.3,3.1,2.7,2.1,4,5.2,4,9.4s-1.3,7.1-4,9.2-6.5,3.1-11.3,3.1h-11.2v11.5h-10.2v-36.3M341.2,49.3v9.9h10.6c2,0,3.5-.4,4.4-1.1.9-.8,1.4-1.9,1.4-3.4v-.6c0-1.6-.5-2.8-1.4-3.6s-2.4-1.2-4.4-1.2h-10.6"/>
      <path class="st4" d="M371.3,51.8h9.8v3.6c1.2-1.5,2.7-2.5,4.5-3.2s3.7-1,5.6-1,.8,0,1.3,0,1.1,0,1.7.2v7.6c-.9,0-2-.2-3.1-.3h-3.5c-1.2,0-2.2.3-3.2.7s-1.8,1-2.4,1.9-.9,2-.9,3.5v13.2h-9.9v-26.3"/>
      <path class="st4" d="M405.4,60.7l-10-.7c.4-1.6,1.2-3,2.4-4.3,1.2-1.3,2.9-2.4,5.1-3.2s5-1.2,8.4-1.2c4.9,0,8.7.9,11.3,2.6s3.9,4.3,3.9,7.6v12c0,.9,0,1.6.1,2.4,0,.7.1,1.5.2,2.4h-9.5l-.2-2.3c-1.2,1-2.7,1.7-4.5,2.1s-3.7.6-5.8.6c-3.6,0-6.5-.7-8.7-2.1s-3.3-3.4-3.3-6,.8-3.9,2.5-5.3c1.6-1.5,4.4-2.4,8.2-2.7l11-1.1v-.3c0-2.4-1.8-3.6-5.5-3.6s-3,.2-3.9.7-1.6,1.3-1.9,2.4M416.8,67l-8.5,1.1c-1,0-1.7.4-2.3.7-.5.3-.8.9-.8,1.6s.3,1.2.9,1.7c.6.4,1.7.6,3.1.6s2.4,0,3.6-.4c1.1-.2,2.1-.6,2.8-1.2.7-.6,1.1-1.4,1.1-2.4v-1.8"/>
      <path class="st4" d="M441.7,51.8v26.3h-9.9v-26.3h9.9M431.9,48.4v-7.2h9.8v7.2h-9.8"/>
      <path class="st4" d="M447,51.8h9.8v3.6c1.2-1.5,2.7-2.5,4.5-3.2s3.7-1,5.6-1,.8,0,1.3,0,1.1,0,1.7.2v7.6c-.9,0-2-.2-3.1-.3h-3.5c-1.2,0-2.2.3-3.2.7s-1.8,1-2.4,1.9-.9,2-.9,3.5v13.2h-9.9v-26.3"/>
      <path class="st4" d="M488.9,78.7c-3.5,0-6.7-.5-9.4-1.6-2.8-1.1-4.9-2.6-6.5-4.7-1.6-2-2.4-4.6-2.4-7.5s.7-5.5,2.3-7.6c1.5-2,3.6-3.6,6.3-4.6,2.7-1,5.9-1.6,9.4-1.6s7,.6,9.6,1.8,4.6,2.9,5.9,5.3c1.3,2.3,1.7,5.2,1.4,8.7h-24.9c.2,1.4.9,2.6,2.3,3.6,1.3,1,3.4,1.5,6.1,1.5s4.1-.3,5.1-.8,1.8-1.3,2.3-2.1l9.1,1c-.8,2.8-2.6,5-5.6,6.5s-6.6,2.2-10.9,2.2h0ZM480.6,61.8h15.8c-.2-1.4-.9-2.5-2.2-3.3s-3.1-1.2-5.5-1.2-4.5.4-5.8,1.3c-1.3.9-2.1,1.9-2.3,3.1"/>
      <path class="st4" d="M509.6,69.3h9.7v7.8l-5,8.2h-5.1l3.5-7.2h-3.1v-8.8"/>
      <path class="st4" d="M534.7,41.8h10.2v36.3h-10.2v-36.3"/>
      <path class="st4" d="M550.9,41.8h10.2v28.8h21.8v7.6h-32v-36.3"/>
    </g>
  </g>
  <g class="st2">
    <g class="st0">
      <path class="st4" d="M40.3,41.2h21.5c5.3,0,9.7.9,13.1,2.6,3.5,1.7,6.1,4.1,7.8,7.1,1.7,3,2.6,6.5,2.6,10.3s-.9,7.2-2.6,10.2-4.3,5.4-7.8,7.1-7.8,2.6-13.1,2.6h-21.5v-39.9M51.5,49.5v23.3h9.5c4.4,0,7.6-1,9.8-2.9,2.1-1.9,3.2-4.6,3.2-8v-1.5c0-3.4-1.1-6.1-3.2-8s-5.4-2.9-9.8-2.9h-9.5"/>
      <path class="st4" d="M127,68.8h-27.4c.2,1.6,1,2.9,2.5,4s3.7,1.6,6.7,1.6,4.5-.3,5.6-.9,2-1.4,2.5-2.4l9.9,1.1c-.8,3.1-2.9,5.5-6.1,7.1-3.3,1.6-7.2,2.4-12,2.4s-7.3-.6-10.3-1.7c-3-1.2-5.4-2.9-7.2-5.1-1.7-2.2-2.6-5-2.6-8.3s.8-6.1,2.5-8.3c1.6-2.2,4-3.9,6.9-5.1,3-1.1,6.4-1.7,10.4-1.7s7.7.6,10.6,1.9c2.9,1.3,5,3.2,6.4,5.8s1.9,5.7,1.5,9.5M99.7,63.2h17.4c-.2-1.6-1-2.8-2.4-3.6s-3.4-1.3-6-1.3-4.9.5-6.3,1.4c-1.4,1-2.3,2.1-2.6,3.5"/>
      <path class="st4" d="M127.1,52.2h10.8l8.9,19,8.8-19h11.1l-14.4,28.9h-11.3l-14.4-28.9h.5"/>
      <path class="st4" d="M169.7,52.2h10.9v28.9h-10.9v-28.9M169.8,40.6h10.8v7.9h-10.8v-7.9"/>
      <path class="st4" d="M186.5,41.2h10.9v39.9h-10.9v-39.9"/>
      <path class="st4" d="M203,39.9h10.8v7.6l-5.7,7.1h-5.5l4.1-6.1h-3.7v-8.7"/>
      <path class="st4" d="M223.3,60.4c0,.4.2.7.6,1,.4.3,1.4.5,2.9.7l10.6,1.3c2.3.3,4.3.7,5.9,1.2s2.9,1.4,3.8,2.5c.9,1.1,1.3,2.6,1.3,4.5s-.8,4.3-2.4,5.8c-1.6,1.5-3.7,2.6-6.4,3.3-2.7.7-5.8,1-9.3,1s-8.1-.6-11.3-1.7c-3.2-1.2-5.4-3-6.6-5.4l9-3.3c.3.5.7,1,1.3,1.5.5.5,1.4,1,2.6,1.4,1.2.4,2.9.6,5.2.6s4.4-.2,5.9-.4c1.5-.3,2.2-.8,2.2-1.6s-.2-.9-.6-1.2c-.4-.3-1.1-.5-2.1-.6l-11.4-1.4c-2.1-.3-3.9-.7-5.6-1.3s-3-1.5-3.9-2.6c-1-1.1-1.4-2.6-1.4-4.4s.7-4.2,2.2-5.6c1.4-1.4,3.4-2.5,6-3.1,2.6-.7,5.5-1,8.8-1s8,.6,11,1.7c3,1.2,5.1,3,6.5,5.6l-8.8,2.5c-.6-.9-1.5-1.6-2.7-2.1s-3.2-.8-6-.8-4.2.2-5.4.5-1.8.8-1.8,1.4"/>
      <path class="st4" d="M265.6,41.2h11.2v39.9h-11.2v-39.9"/>
      <path class="st4" d="M308,61.3c-.6-.9-1.5-1.6-2.7-2.1s-3.2-.8-6-.8-4.2.2-5.4.5-1.8.8-1.8,1.4.2.7.6,1,1.4.5,2.9.7l10.6,1.3c2.3.3,4.3.7,5.9,1.2s2.9,1.4,3.8,2.5,1.3,2.6,1.3,4.5-.8,4.3-2.4,5.8-3.7,2.6-6.4,3.3c-2.7.7-5.8,1-9.3,1s-8.1-.6-11.3-1.7c-3.2-1.2-5.4-3-6.6-5.4l9-3.3c.3.5.7,1,1.3,1.5.5.5,1.4,1,2.6,1.4s2.9.6,5.2.6,4.4-.2,5.9-.4c1.5-.3,2.2-.8,2.2-1.6s-.2-.9-.6-1.2c-.4-.3-1.1-.5-2.1-.6l-11.4-1.4c-2.1-.3-3.9-.7-5.6-1.3s-3-1.5-3.9-2.6c-1-1.1-1.4-2.6-1.4-4.4s.7-4.2,2.2-5.6c1.4-1.4,3.4-2.5,6-3.1,2.6-.7,5.5-1,8.8-1s8,.6,11,1.7c3,1.2,5.1,3,6.5,5.6l-8.8,2.5"/>
      <path class="st4" d="M321.7,41.2h10.9v39.9h-10.9v-39.9"/>
      <path class="st4" d="M337.5,61.2c.4-1.7,1.3-3.3,2.6-4.8,1.3-1.5,3.2-2.6,5.6-3.5s5.5-1.3,9.3-1.3c5.4,0,9.6,1,12.4,2.9s4.3,4.7,4.3,8.4v13.1c0,.9,0,1.8.1,2.6,0,.8.1,1.7.3,2.6h-10.4l-.2-2.5c-1.3,1.1-2.9,1.9-4.9,2.3-1.9.5-4.1.7-6.4.7-3.9,0-7.1-.8-9.6-2.3-2.4-1.5-3.7-3.7-3.7-6.5s.9-4.3,2.7-5.9c1.8-1.6,4.8-2.6,9-3l12.1-1.2v-.3c0-2.6-2-3.9-6-3.9s-3.3.3-4.3.8-1.7,1.4-2.1,2.6l-11-.8M348.2,72.6c0,.7.3,1.4,1,1.8.7.5,1.8.7,3.5.7s2.7,0,3.9-.4c1.3-.3,2.3-.7,3.1-1.3.8-.6,1.2-1.5,1.2-2.6v-2l-9.3,1.2c-1,.2-1.9.4-2.5.8s-.9,1-.9,1.8h0Z"/>
      <path class="st4" d="M377.4,52.2h10.7v2.8c2.4-2.3,5.9-3.4,10.6-3.4s3.1.2,4.7.5,3.1.9,4.4,1.8,2.4,2,3.3,3.5c.8,1.5,1.3,3.3,1.3,5.6v18.2h-10.9v-17.1c0-1.7-.6-3-1.8-3.7-1.2-.8-2.8-1.2-4.8-1.2s-3.6.4-4.8,1.2c-1.2.8-1.8,2-1.9,3.7v17.1h-10.9v-28.9"/>
      <path class="st4" d="M456,41.2v39.9h-10.7v-2.8c-1.5,1.2-3.2,2.1-5.2,2.6s-4,.8-6.2.8-3.9-.3-5.9-.8-3.9-1.4-5.6-2.7c-1.7-1.2-3.1-2.8-4.2-4.7-1.1-1.9-1.6-4.2-1.6-6.9s.5-5,1.5-6.9,2.4-3.5,4.1-4.7,3.5-2.1,5.6-2.6c2-.6,4.1-.8,6-.8s4.1.3,6.1.9,3.7,1.5,5.1,2.6v-13.8h10.9M436.3,58.9c-2.4,0-4.4.6-6.1,1.9-1.7,1.3-2.5,3.1-2.5,5.5v.6c0,1.6.4,2.9,1.2,4s1.8,1.9,3.1,2.5c1.3.6,2.8.9,4.3.9s2.8-.2,4.2-.7c1.3-.5,2.5-1.3,3.3-2.3.9-1.1,1.3-2.5,1.3-4.2v-.9c0-1.8-.4-3.2-1.3-4.2-.9-1.1-2-1.8-3.3-2.3s-2.7-.7-4.2-.7"/>
      <path class="st4" d="M472.3,71.4v8.5l-5.5,9.1h-5.6l3.8-7.9h-3.4v-9.7h10.6"/>
      <path class="st4" d="M498,81.1l-13.7-39.9h12.2l8.6,29.4,10.1-29.4h11.5l10.1,29.4,8.6-29.4h11.6l-13.7,39.9h-13.6l-9.2-27.1-9.2,27.1h-13.4"/>
      <path class="st4" d="M560.5,41.2h11.2v39.9h-11.2v-39.9"/>
    </g>
  </g>
  <g class="st2">
    <g class="st2">
      <g class="st2">
        <path class="st4" d="M164.5,51.7l-11.4,2.7c-.9-2.2-2.1-4-3.6-5.2-1.5-1.3-3.2-2.1-5.1-2.7-1.9-.5-3.9-.8-6-.8s-5.4.5-7.7,1.4c-2.3,1-4.2,2.4-5.6,4.3-1.4,1.9-2.1,4.3-2.1,7.3v1.3c0,2.9.7,5.3,2.1,7.2,1.4,1.9,3.2,3.4,5.6,4.3s4.9,1.4,7.7,1.4,4.1-.3,6-.8,3.6-1.4,5.1-2.7c1.5-1.3,2.7-3,3.6-5.2l11.4,2.7c-.8,2.9-2.4,5.6-4.7,8-2.3,2.4-5.3,4.2-8.9,5.7-3.6,1.4-7.8,2.1-12.6,2.1s-10.3-1-14.5-2.9-7.6-4.7-10-8.2c-2.4-3.5-3.6-7.7-3.6-12.4s1.2-8.9,3.6-12.4c2.4-3.5,5.7-6.2,10-8.1,4.2-1.9,9.1-2.9,14.5-2.9s9,.7,12.6,2c3.6,1.4,6.6,3.2,8.9,5.6,2.3,2.4,3.9,5,4.7,8"/>
        <path class="st4" d="M181.5,36.8v15.5c2.7-2.5,6.7-3.7,11.8-3.7s3.5.2,5.4.6c1.8.4,3.5,1.1,5,2s2.8,2.3,3.7,4c1,1.7,1.4,3.8,1.4,6.4v20.7h-12.4v-19.4c0-2-.7-3.4-2-4.2-1.4-.9-3.2-1.3-5.4-1.3s-4.1.4-5.4,1.3c-1.4.9-2.1,2.3-2.1,4.2v19.4h-12.4v-45.4h12.4"/>
        <path class="st4" d="M227.6,49.3v32.8h-12.4v-32.8h12.4M227.6,36.1v8.9h-12.3v-8.9h12.3"/>
        <path class="st4" d="M275.4,61.1l-11.5,1.2c-.6-1.6-1.7-2.9-3.2-3.9-1.5-1-3.5-1.5-5.8-1.5s-5.3.8-7.1,2.3-2.6,3.6-2.6,6.1v.6c0,2.5.9,4.5,2.6,6.1s4.1,2.4,7.1,2.4,4.3-.5,5.8-1.5c1.5-1,2.6-2.3,3.2-3.9l11.5,1.2c-.6,2.9-2,5.3-4,7.2s-4.5,3.2-7.3,4.1c-2.9.9-5.9,1.3-9.2,1.3s-5.6-.4-8.2-1.1c-2.6-.7-5-1.8-7.1-3.3-2.1-1.5-3.8-3.2-5-5.4-1.2-2.1-1.9-4.6-1.9-7.4s1-6.9,3-9.5c2-2.6,4.7-4.5,8.1-5.8,3.4-1.3,7.1-1.9,11.2-1.9s6.3.4,9.2,1.3c2.9.9,5.3,2.2,7.3,4.1,2,1.9,3.4,4.2,4,7.2"/>
        <path class="st4" d="M291.5,60.4l-12.5-.9c.5-2,1.5-3.8,3-5.4,1.5-1.7,3.6-3,6.4-4,2.8-1,6.3-1.5,10.5-1.5,6.2,0,10.9,1.1,14.2,3.3s4.9,5.3,4.9,9.5v10.9c0,1.6,0,2.9,0,4,0,1.1,0,2.1.1,3,0,.9.2,1.9.3,3h-11.8l-.3-2.8c-1.5,1.2-3.3,2.1-5.6,2.7-2.2.5-4.6.8-7.2.8-4.5,0-8.1-.9-10.9-2.6s-4.2-4.2-4.2-7.4,1-4.9,3.1-6.7c2-1.8,5.5-3,10.2-3.4l13.7-1.3v-.3c0-3-2.3-4.5-6.8-4.5s-3.7.3-4.9.9c-1.2.6-2,1.6-2.4,3M305.6,68.2l-10.6,1.3c-1.2.2-2.1.5-2.8.9-.7.4-1,1.1-1,2s.4,1.5,1.2,2.1c.8.5,2.1.8,3.9.8s3-.1,4.4-.4c1.4-.3,2.6-.8,3.5-1.5.9-.7,1.4-1.7,1.4-2.9v-2.2"/>
        <path class="st4" d="M365.6,52.4c-1.1-.1-2.3-.2-3.4,0-1.1,0-2.2.3-3.3.7,2.2,1.8,3.3,4,3.3,6.6s-.8,3.9-2.3,5.6c-1.5,1.7-3.7,3-6.6,4-2.9,1-6.4,1.5-10.5,1.5s-4.9-.2-7.1-.6c-.5.5-.7,1-.7,1.5s.2.8.6,1.1,1.2.5,2.2.5l15.3.4c4.5.1,7.8.9,9.9,2.4,2.1,1.5,3.2,3.5,3.2,6.1s-2,6.3-6,8.3c-4,2-9.8,3-17.3,3s-7.8-.2-10.6-.6c-2.8-.4-5-.9-6.6-1.7-1.6-.7-2.7-1.6-3.4-2.5-.6-.9-1-1.9-1-3,0-2.6,1.8-4.7,5.4-6.4-1.3-1.2-2-2.7-2-4.5s.4-2.5,1.2-3.7c.8-1.2,1.9-2.3,3.5-3.2-4.2-2-6.3-4.9-6.3-8.4s.8-3.9,2.3-5.6c1.5-1.7,3.7-3,6.6-4,2.9-1,6.5-1.5,10.7-1.5s3.6.1,5.2.3,3.1.5,4.4.9c1.4-1.8,2.9-3.1,4.7-3.8,1.7-.8,3.7-1.1,5.8-1.1s1.9,0,2.8.2v7.5M343.1,86.8c3.3,0,5.9-.2,7.9-.6,2-.5,3-1.2,3-2.1s-1.6-1.8-4.7-1.9l-14.8-.4c-1,.6-1.5,1.3-1.5,2.1,0,1.1.9,1.9,2.7,2.3,1.8.4,4.3.6,7.4.7ZM335.2,59.5c0,1.3.6,2.3,1.8,3,1.2.7,3.1,1.1,5.7,1.1s4.5-.4,5.7-1.1c1.2-.8,1.8-1.8,1.8-3s-.6-2.2-1.8-2.9-3.1-1.1-5.7-1.1-4.5.3-5.7,1.1c-1.2.7-1.8,1.7-1.8,3"/>
        <path class="st4" d="M390.1,48.5c4.2,0,8,.7,11.3,1.9,3.4,1.3,6.1,3.2,8.1,5.8,2,2.6,3,5.7,3,9.5s-.6,5.3-1.8,7.4c-1.2,2.1-2.9,3.9-5,5.4-2.1,1.4-4.5,2.5-7.2,3.3-2.7.7-5.5,1.1-8.4,1.1s-5.8-.4-8.4-1.1c-2.7-.7-5.1-1.8-7.2-3.3-2.1-1.5-3.8-3.2-5-5.4-1.2-2.1-1.8-4.6-1.8-7.4s1-6.9,3-9.5c2-2.6,4.7-4.5,8.1-5.8,3.4-1.3,7.2-1.9,11.4-1.9M390.1,57c-3,0-5.4.8-7.2,2.3-1.8,1.5-2.7,3.6-2.7,6.1v.6c0,2.5.9,4.6,2.7,6.1s4.2,2.3,7.2,2.3,5.4-.8,7.2-2.3,2.7-3.6,2.7-6.1v-.6c0-2.6-.9-4.6-2.7-6.1s-4.2-2.3-7.2-2.3"/>
        <path class="st4" d="M429.5,71.1v9.7l-6.2,10.3h-6.3l4.3-9h-3.9v-11h12.1"/>
        <path class="st4" d="M461.5,36.8v45.4h-12.8v-45.4h12.8"/>
        <path class="st4" d="M481.7,36.8v35.9h27.2v9.5h-40v-45.4h12.8"/>
      </g>
    </g>
  </g>
</svg>